Coordinates
version=1
nRows=19
nColumns=34
inDegrees=yes

Units are S.I. units (second, meters, Newtons, ...)
If the header above contains a line with 'inDegrees', this indicates whether rotational values are in degrees (yes) or radians (no).

endheader
time	pelvis_tilt	pelvis_list	pelvis_rotation	pelvis_tx	pelvis_ty	pelvis_tz	hip_flexion_r	hip_adduction_r	hip_rotation_r	knee_angle_r	ankle_angle_r	subtalar_angle_r	mtp_angle_r	hip_flexion_l	hip_adduction_l	hip_rotation_l	knee_angle_l	ankle_angle_l	subtalar_angle_l	mtp_angle_l	lumbar_extension	lumbar_bending	lumbar_rotation	arm_flex_r	arm_add_r	arm_rot_r	elbow_flex_r	pro_sup_r	arm_flex_l	arm_add_l	arm_rot_l	elbow_flex_l	pro_sup_l
      6.80000000	     -0.33248940	     -9.78644549	    167.66106958	     -4.46314890	      0.97681124	     -1.17131273	    -27.16888991	     -3.74874328	     -8.64246345	     24.68718090	    -19.60217704	     -9.66173053	      0.00000000	     34.83263134	     10.67726965	     -2.28164488	     14.30622457	     -7.69879513	     -7.04837058	      0.00000000	    -29.79859655	    -10.72000870	     17.78225922	     37.21198887	    -11.82782763	    137.76663198	    101.51894747	     62.07630783	    -13.16561634	     -4.51444817	    -31.53270935	     41.49518817	     84.91675512
      6.81666670	     -3.01556876	     -5.89214737	    166.08310467	     -4.53157466	      0.97471402	     -1.18964764	    -30.00000025	     -0.44086219	     -5.81857655	     32.22839897	    -22.67083911	    -13.64994484	      0.00000000	     31.63551586	      7.42779433	     -5.97863803	      7.19046282	     -9.99943075	      0.96534841	      0.00000000	    -31.18183187	     -7.45206328	     21.89884981	     38.07370207	    -13.28620601	    139.13503176	    105.02682836	     61.63971525	    -14.41943349	     -2.82714974	    -36.50053254	     44.37844851	     83.86642319
      6.83333330	     -4.11332356	     -2.42587915	    164.99505611	     -4.59891760	      0.96558112	     -1.20639421	    -30.00000025	      2.81067922	     -2.62254687	     42.56368295	    -22.16466275	    -16.28745168	      0.00000000	     30.30468570	      4.27971576	     -9.68066812	      5.04021908	    -11.83009040	      6.22869317	      0.00000000	    -31.30987662	     -4.58960408	     23.83052025	     38.51174526	    -14.70406786	    138.76866230	    108.94564275	     61.04872543	    -16.62206504	     -0.82901796	    -44.01288063	     48.83952882	     82.17396631
      6.85000000	     -6.02009285	      0.77352811	    164.78101958	     -4.66295685	      0.95671005	     -1.22114506	    -30.00000025	      6.14613291	     -0.77567571	     54.18211344	    -20.55068507	    -18.37635958	      0.00000000	     27.08870478	      1.59487885	    -10.89960822	      4.91805787	    -13.96654125	      7.93897891	      0.00000000	    -33.11160078	     -1.81370821	     24.54503640	     39.52598725	    -17.70700540	    135.98533181	    115.01430219	     61.22091757	    -18.21289655	     -0.82943710	    -46.47447862	     52.26513521	     81.52969005
      6.86666670	     -8.85763240	      3.98156867	    165.27381599	     -4.72443997	      0.95106803	     -1.23425629	    -29.49244196	      9.45673465	     -0.82359376	     66.18738492	    -20.16607326	    -20.13902256	      0.00000000	     22.04430772	     -1.07131779	    -10.79443767	      5.47484283	    -15.49616902	      7.82998783	      0.00000000	    -36.67488984	      0.70949640	     24.06241508	     41.33929795	    -21.99206131	    129.74038500	    122.11676489	     62.41727871	    -19.09102896	     -0.92130419	    -48.78592353	     57.04897489	     80.30720284
      6.88333330	    -10.57746722	      6.58983618	    166.27932417	     -4.78516100	      0.94534506	     -1.24589905	    -25.63105486	     12.15523395	     -3.08702204	     79.38170664	    -21.39663134	    -22.89799532	      0.00000000	     18.23666374	     -3.53029383	     -9.03849602	      6.89739070	    -14.88058721	      5.58462504	      0.00000000	    -39.31279759	      3.51290120	     23.54684611	     40.93647745	    -27.56745997	    116.08036538	    128.18640945	     63.95335209	    -17.99659014	     -2.09085767	    -49.43386830	     60.06718307	     79.18589835
      6.90000000	    -11.48012396	      6.85883448	    167.43715208	     -4.84665931	      0.93733620	     -1.25786499	    -20.22150201	     11.96669996	     -6.83928309	     91.42087860	    -21.23592423	    -24.81524108	      0.00000000	     16.04906809	     -3.86266456	     -7.05138199	     10.00963417	    -12.36989993	      1.69448809	      0.00000000	    -39.89806645	      4.45437770	     22.53323202	     31.29219671	    -32.73023607	     84.75883384	    128.69169768	     96.34336187	    -15.18779836	     -5.28756445	    -46.56579620	     61.82303961	     71.97920680
      6.91666670	    -12.86038344	      4.99687048	    168.45493459	     -4.90641283	      0.92921361	     -1.27029673	    -15.48355855	      8.96997770	     -9.86040302	    100.55896793	    -19.43117237	    -25.30250114	      0.00000000	     14.32577362	     -1.77117866	     -4.65264409	     15.97243181	     -7.83104033	     -4.67848551	      0.00000000	    -40.19585478	      2.52555474	     18.22929338	     19.68320010	    -30.75924256	     53.53655270	    122.32852238	     96.82128363	    -12.86920287	     -8.57274536	    -47.62665059	     64.14218398	     71.88869968
      6.93333330	    -13.18904928	      2.11128243	    169.30442843	     -4.96221264	      0.92294500	     -1.28185064	     -8.69412502	      5.12787823	    -11.14491943	    107.97211163	    -15.71927653	    -24.39897027	      0.00000000	     14.70402685	      1.52884802	     -1.86040255	     24.67535450	     -1.68824323	    -11.54381801	      0.00000000	    -39.55601971	     -0.59125311	     12.62103737	     12.50708533	    -25.04589447	     32.80869515	    111.67050904	     98.26831352	    -10.93136449	    -11.98812481	    -50.61897297	     64.62427870	     71.84600845
      6.95000000	    -13.54983801	     -0.55013857	    170.10593262	     -5.01230383	      0.92133913	     -1.29284456	     -0.06012827	      1.63861384	    -10.64061197	    114.50517261	    -10.20279784	    -22.30036596	      0.00000000	     14.53612694	      4.65043597	     -0.20123157	     32.76189628	      5.50652883	    -15.21110267	      0.00000000	    -39.82891094	     -3.31065345	      7.08882924	     10.10170534	    -19.25445312	     19.65295725	     99.57939386	     98.63944504	     -8.84767481	    -15.66907900	    -52.69374802	     63.01385265	     71.91973374
      6.96666670	    -13.00576269	     -3.42503778	    171.58346912	     -5.06041378	      0.92201200	     -1.30381354	     11.27376963	     -2.20472612	     -9.11782894	    119.39745111	     -2.86127426	    -19.58142800	      0.00000000	     14.32898267	      7.62948841	      0.58044255	     38.42549833	     11.67065425	    -16.61829801	      0.00000000	    -40.07324840	     -5.33577877	      3.26995212	      6.93959873	    -14.99608805	      7.26535133	     93.40860226	    102.22484338	     -3.33450970	    -19.21859270	    -52.18695670	     61.37715254	     74.18840762
      6.98333330	    -12.63264656	     -5.97226594	    173.77575099	     -5.11018178	      0.92434985	     -1.31495414	     22.26128678	     -6.16306047	     -6.91739612	    120.29688609	      4.45464863	    -16.94097713	      0.00000000	     12.59263522	      9.75165349	      0.71410823	     41.46008732	     15.38950894	    -16.87077368	      0.00000000	    -40.16196092	     -5.89391879	     -3.14830312	      7.27757081	    -11.33519028	      1.65063717	     88.62685628	    102.45642976	      1.20742408	    -21.75661537	    -50.91600775	     64.35447266	     74.87668172
      7.00000000	    -12.35399096	     -6.83834489	    175.36402213	     -5.16301013	      0.93219724	     -1.32628180	     30.27166260	     -8.04353488	     -4.10793877	    115.53628033	      9.53351097	    -13.89292990	      0.00000000	      9.37168742	      9.63135698	      0.29283087	     42.07654369	     16.37703700	    -17.61795313	      0.00000000	    -39.95918139	     -4.90416563	     -7.80321919	      6.88826804	     -9.06804361	     -1.21821640	     87.56602300	    103.18066861	      7.97218838	    -23.58400544	    -44.40769173	     70.55915284	     76.57491985
      7.01666670	    -11.53322534	     -5.84605494	    175.79332379	     -5.21736395	      0.94097582	     -1.33849610	     34.62849633	     -7.20950988	     -1.87675706	    106.45475461	      8.56319387	    -14.47798762	      0.00000000	      6.37541884	      7.48369893	     -0.35733564	     41.88913730	     14.97822671	    -19.24566821	      0.00000000	    -39.07539326	     -3.08210630	     -8.56088463	      4.39687000	     -8.04741407	     -4.24515032	     90.28235334	    103.73317200	     18.42552231	    -24.72911120	    -31.37417880	     75.03917962	     79.53771581
      7.03333330	    -10.38156122	     -4.10133268	    174.85573196	     -5.27228396	      0.95289582	     -1.35370757	     36.65922535	     -4.54358693	      0.36301080	     94.88815154	      3.81706037	    -18.95827455	      0.00000000	      3.47425125	      4.58792154	     -1.51294457	     41.34110359	     11.73756779	    -20.40870270	      0.00000000	    -37.88006513	     -1.35596358	    -10.57040970	      4.67694892	     -7.23175262	     -2.17265041	     90.58077483	    103.63013115	     23.74499128	    -26.49410899	    -23.75548631	     80.15077400	     80.77560252
      7.05000000	    -10.01518327	     -1.95152704	    173.78292838	     -5.32663710	      0.97145624	     -1.37027995	     35.83673133	     -1.66271594	      1.91866723	     81.32006244	     -2.01046937	    -25.43399100	      0.00000000	     -0.30860322	      1.55164294	     -2.11076793	     40.72207590	      6.26785832	    -21.31701992	      0.00000000	    -37.54878429	      0.68023924	    -11.29577999	      4.55399948	     -6.27980731	     -1.00912549	     91.31269906	    103.02926272	     27.70689036	    -27.41569643	    -17.92051710	     82.34956698	     82.01390146
      7.06666670	    -10.66561082	     -0.09298107	    172.82179075	     -5.38186233	      0.99448557	     -1.38709443	     32.35690411	      0.57884383	      3.51367824	     65.64821988	     -6.85316679	    -30.56109251	      0.00000000	     -5.01015640	     -0.71722648	     -2.33342059	     39.87433258	     -1.07407102	    -21.77868511	      0.00000000	    -38.19414697	      2.33783206	    -11.93956218	      4.54723435	     -5.08736481	     -0.56296477	     91.18294077	    102.10968461	     31.39808115	    -27.50655070	    -13.12886728	     82.07798613	     83.17310090
      7.08333330	    -11.92842825	      0.48759624	    172.42117548	     -5.44113510	      1.01026238	     -1.40323270	     27.08113918	      1.10154137	      5.43677715	     47.69109386	     -9.85561080	    -29.95309040	      0.00000000	     -9.81131150	     -1.20784331	     -1.96524380	     39.39728206	     -8.77843670	    -22.19281828	      0.00000000	    -38.79869174	      2.85024956	    -13.30664764	      3.65496357	     -3.88083776	     -1.03154545	     90.80066843	    101.14841910	     34.14078780	    -27.02344844	     -8.56918232	     81.55945214	     84.11653971
      7.10000000	    -13.19541426	     -1.39907244	    172.81408833	     -5.50484573	      1.00732938	     -1.41887883	     21.99970116	     -1.51532685	      6.77271265	     30.06683847	    -13.64844389	    -22.42749480	      0.00000000	    -13.28677991	      0.97098440	     -0.30590165	     40.83828308	    -15.26638220	    -23.51017031	      0.00000000	    -37.84660425	      1.13102171	    -14.68206393	     -0.00697562	     -2.96960726	     -3.08531856	     92.56746867	    100.36427639	     33.10637102	    -26.20310521	     -3.88413301	     86.79366257	     85.15381430
